#!OML:ASF E:\Steps\Project 1\Capture day 1\Session 2\Subject.ASF
:FULLY-SPECIFIED
:DEGREES
514
root 3.00391 17.8488 18.1724 -153.302 -4.01565 175.033
lowerback -21.6543 -3.03335 -4.70024
upperback 0.833999 -3.0613 0.910143
thorax 13.4716 -1.83108 2.69688
lowerneck 0.529288 -4.84888 -0.193929
upperneck 23.7682 -4.46153 0.158558
head 7.18523 -1.30453 -0.0722886
rclavicle 6.95746e-016 -8.34896e-015
rhumerus -44.9611 -15.5377 -73.007
rradius 32.8529
rwrist -3.57708
rhand -8.64061 -57.4516
rfingers 7.12502
rthumb 17.2924 633.298
lclavicle 6.95746e-016 -8.34896e-015
lhumerus -29.1038 -2.1929 83.3761
lradius 30.5055
lwrist -0.391044
lhand -22.8545 -14.7369
lfingers 7.12502
lthumb 3.58363 15.2127
rfemur -38.2841 6.42283 10.029
rtibia 24.3495
rfoot -20.567 -6.55261
rtoes -24.1662
lfemur -27.585 -16.3744 -10.2088
ltibia 31.123
lfoot -9.20594 10.5222
ltoes -26.8612
515
root 3.03758 17.8414 18.1216 -153.324 -4.07504 174.729
lowerback -21.992 -3.09178 -4.90015
upperback 0.884061 -3.06454 0.872269
thorax 13.7343 -1.84966 2.75446
lowerneck 0.701756 -4.83987 -0.130203
upperneck 23.5417 -4.44004 0.0171858
head 7.07516 -1.30819 -0.123861
rclavicle -2.57426e-014 -3.57812e-015
rhumerus -44.9185 -15.4945 -72.9948
rradius 32.889
rwrist -3.73999
rhand -8.56398 -58.5705
rfingers 7.12502
rthumb 17.3661 632.185
lclavicle -2.57426e-014 -3.57812e-015
lhumerus -29.1589 -2.24416 83.4429
lradius 30.4888
lwrist -0.211133
lhand -22.6274 -14.7292
lfingers 7.12502
lthumb 3.80294 15.2166
rfemur -37.8543 6.06022 10.0291
rtibia 24.1343
rfoot -20.6064 -6.34491
rtoes -24.5042
lfemur -27.9383 -16.5417 -10.6962
ltibia 32.1876
lfoot -8.97649 10.3887
ltoes -24.0657
516
root 3.07053 17.845 18.0871 -153.353 -4.07064 174.551
lowerback -21.9888 -3.06958 -4.9197
upperback 0.838822 -3.02861 0.829631
thorax 13.6741 -1.83227 2.73016
lowerneck 0.694017 -4.98499 -0.345056
upperneck 23.7383 -4.6315 0.193409
head 7.15273 -1.39105 -0.0417822
rclavicle 4.57205e-015 -7.15625e-015
rhumerus -45.0105 -15.4306 -73.0082
rradius 32.9442
rwrist -4.06297
rhand -9.49061 -58.6374
rfingers 7.12502
rthumb 16.4741 632.042
lclavicle 4.57205e-015 -7.15625e-015
lhumerus -29.3359 -2.31161 83.4386
lradius 30.6298
lwrist 0.0691341
lhand -22.2763 -14.8166
lfingers 7.12502
lthumb 4.14192 15.1229
rfemur -37.6183 5.87637 10.1003
rtibia 24.0752
rfoot -20.5481 -6.28944
rtoes -25.056
lfemur -28.4294 -16.5225 -11.071
ltibia 33.303
lfoot -9.01061 10.0499
ltoes -26.2048
517
root 3.1024 17.8292 18.0677 -152.555 -3.43366 174.847
lowerback -22.9119 -2.77215 -4.53459
upperback 0.605627 -2.72062 0.801944
thorax 13.8753 -1.67303 2.55885
lowerneck 0.365673 -5.14041 -0.500045
upperneck 24.3428 -4.7909 0.287754
head 7.41855 -1.44234 -0.00134174
rclavicle 7.95139e-016 7.15625e-015
rhumerus -45.0995 -15.4244 -73.0763
rradius 33.0367
rwrist -4.27128
rhand -10.071 -57.8547
rfingers 7.12502
rthumb 15.9152 632.779
lclavicle 7.95139e-016 7.15625e-015
lhumerus -29.4948 -2.33653 83.3699
lradius 30.7621
lwrist 0.12204
lhand -22.312 -14.8227
lfingers 7.12502
lthumb 4.10745 15.1175
rfemur -38.9133 6.02543 10.4016
rtibia 24.5761
rfoot -20.6099 -5.78929
rtoes -25.2537
lfemur -29.8554 -15.5741 -10.9822
ltibia 34.4234
lfoot -8.98243 9.27408
ltoes -30.6866
